<svg xmlns="http://www.w3.org/2000/svg" viewBox="0.00 0.00 229.00 244.00"><g fill="none" stroke="gray" stroke-width="2.00"><path d="M143.23 104.92a.31.31 0 0 0 .28.48l20.18-1.32a.31.31 0 0 1 .29.46l-26.72 47.44a.31.31 0 0 1-.24.16l-33.73 3.7a.31.31 0 0 1-.3-.47l79.42-127.26a.3.3 0 0 0 .04-.24l-4.8-19.44a.31.31 0 0 0-.3-.24l-140.88.86a.31.31 0 0 0-.3.36l4.44 26.52a.31.31 0 0 0 .31.25l38.75-.86a.31.31 0 0 1 .26.49L48.08 80.4a.3.3 0 0 0-.05.23l5.07 30.36a.31.31 0 0 0 .33.26l39.06-2.57a.31.31 0 0 1 .28.48L60.99 157.9a.3.3 0 0 0-.05.22l5.45 32.64a.31.31 0 0 0 .34.26l150.85-16.57a.31.31 0 0 0 .27-.38l-6.96-28.21a.31.31 0 0 0-.34-.23l-31.24 3.43a.31.31 0 0 1-.31-.45l21.74-44.2a.3.3 0 0 0 .02-.21l-7.22-29.27a.31.31 0 0 0-.32-.23l-30.84 2.03a.31.31 0 0 0-.23.14l-18.92 28.05" vector-effect="non-scaling-stroke"/><path d="M120.71 34.46a.32.32 0 0 0-.26.14L90.11 79.61a.32.32 0 0 0 .29.5l22.31-1.47a.32.32 0 0 0 .25-.14l28.69-44.01a.32.32 0 0 0-.28-.5l-20.66.47" vector-effect="non-scaling-stroke"/></g><path d="m186.44 0 7.38 29.5a3.27 3.25 54.3 0 1-.41 2.54q-18.47 28.98-20.7 32.8-.84 1.44 1.3 1.72a1 1 0 0 0 .18 0l23.55-1.12a3.83 3.82 81.6 0 1 3.9 2.9l9.49 38.48a2.95 2.95 0 0 1-.22 2.02l-12.74 25.91a1.41 1.4-80 0 0 1.41 2.02l15.78-1.73a3.19 3.18-10.5 0 1 3.43 2.35L229 176.44v8.13l-48.92 38.36a3.75 3.64 21.3 0 1-1.75.74L28.97 244h-1.82q-1.58-.88-1.75-2.15-2.41-17.61-5.22-37.98-.14-1 .34-1.89l16.11-30.55a1.03 1.03 0 0 0-1.02-1.5l-18.47 2.03a1.99 1.91 82.6 0 1-2.11-1.69l-5.05-33.83a5.82 5.81 52.2 0 1 .39-3.11l13.56-32.39a.9.9 0 0 0-.92-1.24l-16.7 1.84a1.66 1.65-6.5 0 1-1.82-1.44L0 64.98v-2.86Q11.18 32.73 22.33 3.33q.75-1.97 2.91-3.33zm-43.21 104.92a.31.31 0 0 0 .28.48l20.18-1.32a.31.31 0 0 1 .29.46l-26.72 47.44a.31.31 0 0 1-.24.16l-33.73 3.7a.31.31 0 0 1-.3-.47l79.42-127.26a.3.3 0 0 0 .04-.24l-4.8-19.44a.31.31 0 0 0-.3-.24l-140.88.86a.31.31 0 0 0-.3.36l4.44 26.52a.31.31 0 0 0 .31.25l38.75-.86a.31.31 0 0 1 .26.49L48.08 80.4a.3.3 0 0 0-.05.23l5.07 30.36a.31.31 0 0 0 .33.26l39.06-2.57a.31.31 0 0 1 .28.48L60.99 157.9a.3.3 0 0 0-.05.22l5.45 32.64a.31.31 0 0 0 .34.26l150.85-16.57a.31.31 0 0 0 .27-.38l-6.96-28.21a.31.31 0 0 0-.34-.23l-31.24 3.43a.31.31 0 0 1-.31-.45l21.74-44.2a.3.3 0 0 0 .02-.21l-7.22-29.27a.31.31 0 0 0-.32-.23l-30.84 2.03a.31.31 0 0 0-.23.14z"/><path fill="#fff" d="m143.23 104.92 18.92-28.05a.31.31 0 0 1 .23-.14l30.84-2.03a.31.31 0 0 1 .32.23l7.22 29.27a.3.3 0 0 1-.02.21L179 148.61a.31.31 0 0 0 .31.45l31.24-3.43a.31.31 0 0 1 .34.23l6.96 28.21a.31.31 0 0 1-.27.38L66.73 191.02a.31.31 0 0 1-.34-.26l-5.45-32.64a.3.3 0 0 1 .05-.22l31.78-48.74a.31.31 0 0 0-.28-.48l-39.06 2.57a.31.31 0 0 1-.33-.26l-5.07-30.36a.3.3 0 0 1 .05-.23l31.85-44.59a.31.31 0 0 0-.26-.49l-38.75.86a.31.31 0 0 1-.31-.25L36.17 9.41a.31.31 0 0 1 .3-.36l140.88-.86a.31.31 0 0 1 .3.24l4.8 19.44a.3.3 0 0 1-.04.24l-79.42 127.26a.31.31 0 0 0 .3.47l33.73-3.7a.31.31 0 0 0 .24-.16l26.72-47.44a.31.31 0 0 0-.29-.46l-20.18 1.32a.31.31 0 0 1-.28-.48m-22.52-70.46a.32.32 0 0 0-.26.14L90.11 79.61a.32.32 0 0 0 .29.5l22.31-1.47a.32.32 0 0 0 .25-.14l28.69-44.01a.32.32 0 0 0-.28-.5z"/><path d="m120.71 34.46 20.66-.47a.32.32 0 0 1 .28.5L112.96 78.5a.32.32 0 0 1-.25.14L90.4 80.11a.32.32 0 0 1-.29-.5l30.34-45.01a.32.32 0 0 1 .26-.14"/></svg>